<svg width="75" height="58" viewBox="0 0 75 58" fill="none" xmlns="http://www.w3.org/2000/svg">
<path id="Vector" d="M4.75 57.5625C3.56354 57.5625 2.56971 57.1605 1.7685 56.3565C0.9645 55.5553 0.5625 54.5614 0.5625 53.375V40.8125C0.5625 35.0198 2.6046 30.0813 6.68881 25.9971C10.7702 21.9157 15.7073 19.875 21.5 19.875H60.025L47.7766 7.62654C47.0089 6.85883 46.625 5.91664 46.625 4.79998C46.625 3.68331 47.0438 2.70622 47.8813 1.86872C48.649 1.10102 49.626 0.717163 50.8125 0.717163C51.999 0.717163 52.976 1.10102 53.7437 1.86872L73.0062 21.1312C73.425 21.55 73.7223 22.0036 73.8982 22.4922C74.0713 22.9807 74.1578 23.5041 74.1578 24.0625C74.1578 24.6208 74.0713 25.1442 73.8982 25.6328C73.7223 26.1213 73.425 26.575 73.0062 26.9937L53.6391 46.3609C52.8714 47.1286 51.9292 47.5125 50.8125 47.5125C49.6958 47.5125 48.7188 47.0937 47.8813 46.2562C47.1135 45.4885 46.7297 44.5114 46.7297 43.325C46.7297 42.1385 47.1135 41.1614 47.8813 40.3937L60.025 28.25H21.5C18.0104 28.25 15.0443 29.4713 12.6016 31.914C10.1589 34.3567 8.9375 37.3229 8.9375 40.8125V53.375C8.9375 54.5614 8.5369 55.5553 7.73569 56.3565C6.93169 57.1605 5.93646 57.5625 4.75 57.5625Z" fill="#CDD6F4"/>
</svg>
